solid Exported from Blender-3.3.1
facet normal -0.098017 0.000000 0.995185
outer loop
vertex 0.000000 -1.000000 1.000000
vertex 0.000000 1.000000 1.000000
vertex -0.195090 1.000000 0.980785
endloop
endfacet
facet normal -0.098017 0.000000 0.995185
outer loop
vertex 0.000000 -1.000000 1.000000
vertex -0.195090 1.000000 0.980785
vertex -0.195090 -1.000000 0.980785
endloop
endfacet
facet normal -0.290285 0.000000 0.956940
outer loop
vertex -0.195090 -1.000000 0.980785
vertex -0.195090 1.000000 0.980785
vertex -0.382683 1.000000 0.923880
endloop
endfacet
facet normal -0.290285 0.000000 0.956940
outer loop
vertex -0.195090 -1.000000 0.980785
vertex -0.382683 1.000000 0.923880
vertex -0.382683 -1.000000 0.923880
endloop
endfacet
facet normal -0.471396 0.000000 0.881921
outer loop
vertex -0.382683 -1.000000 0.923880
vertex -0.382683 1.000000 0.923880
vertex -0.555570 1.000000 0.831470
endloop
endfacet
facet normal -0.471397 0.000000 0.881921
outer loop
vertex -0.382683 -1.000000 0.923880
vertex -0.555570 1.000000 0.831470
vertex -0.555570 -1.000000 0.831470
endloop
endfacet
facet normal -0.634393 0.000000 0.773010
outer loop
vertex -0.555570 -1.000000 0.831470
vertex -0.555570 1.000000 0.831470
vertex -0.707107 1.000000 0.707107
endloop
endfacet
facet normal -0.634393 0.000000 0.773010
outer loop
vertex -0.555570 -1.000000 0.831470
vertex -0.707107 1.000000 0.707107
vertex -0.707107 -1.000000 0.707107
endloop
endfacet
facet normal -0.773011 0.000000 0.634393
outer loop
vertex -0.707107 -1.000000 0.707107
vertex -0.707107 1.000000 0.707107
vertex -0.831470 1.000000 0.555570
endloop
endfacet
facet normal -0.773010 0.000000 0.634394
outer loop
vertex -0.707107 -1.000000 0.707107
vertex -0.831470 1.000000 0.555570
vertex -0.831470 -1.000000 0.555570
endloop
endfacet
facet normal -0.881921 0.000000 0.471397
outer loop
vertex -0.831470 -1.000000 0.555570
vertex -0.831470 1.000000 0.555570
vertex -0.923880 1.000000 0.382683
endloop
endfacet
facet normal -0.881921 0.000000 0.471397
outer loop
vertex -0.831470 -1.000000 0.555570
vertex -0.923880 1.000000 0.382683
vertex -0.923880 -1.000000 0.382683
endloop
endfacet
facet normal -0.956940 0.000000 0.290285
outer loop
vertex -0.923880 -1.000000 0.382683
vertex -0.923880 1.000000 0.382683
vertex -0.980785 1.000000 0.195090
endloop
endfacet
facet normal -0.956940 0.000000 0.290285
outer loop
vertex -0.923880 -1.000000 0.382683
vertex -0.980785 1.000000 0.195090
vertex -0.980785 -1.000000 0.195090
endloop
endfacet
facet normal -0.995185 0.000000 0.098017
outer loop
vertex -0.980785 -1.000000 0.195090
vertex -0.980785 1.000000 0.195090
vertex -1.000000 1.000000 0.000000
endloop
endfacet
facet normal -0.995185 0.000000 0.098017
outer loop
vertex -0.980785 -1.000000 0.195090
vertex -1.000000 1.000000 0.000000
vertex -1.000000 -1.000000 0.000000
endloop
endfacet
facet normal -0.995185 0.000000 -0.098017
outer loop
vertex -1.000000 -1.000000 0.000000
vertex -1.000000 1.000000 0.000000
vertex -0.980785 1.000000 -0.195090
endloop
endfacet
facet normal -0.995185 0.000000 -0.098017
outer loop
vertex -1.000000 -1.000000 0.000000
vertex -0.980785 1.000000 -0.195090
vertex -0.980785 -1.000000 -0.195090
endloop
endfacet
facet normal -0.956940 0.000000 -0.290285
outer loop
vertex -0.980785 -1.000000 -0.195090
vertex -0.980785 1.000000 -0.195090
vertex -0.923880 1.000000 -0.382683
endloop
endfacet
facet normal -0.956940 0.000000 -0.290285
outer loop
vertex -0.980785 -1.000000 -0.195090
vertex -0.923880 1.000000 -0.382683
vertex -0.923880 -1.000000 -0.382683
endloop
endfacet
facet normal -0.881921 0.000000 -0.471397
outer loop
vertex -0.923880 -1.000000 -0.382683
vertex -0.923880 1.000000 -0.382683
vertex -0.831470 1.000000 -0.555570
endloop
endfacet
facet normal -0.881921 0.000000 -0.471397
outer loop
vertex -0.923880 -1.000000 -0.382683
vertex -0.831470 1.000000 -0.555570
vertex -0.831470 -1.000000 -0.555570
endloop
endfacet
facet normal -0.773010 0.000000 -0.634394
outer loop
vertex -0.831470 -1.000000 -0.555570
vertex -0.831470 1.000000 -0.555570
vertex -0.707107 1.000000 -0.707107
endloop
endfacet
facet normal -0.773011 0.000000 -0.634393
outer loop
vertex -0.831470 -1.000000 -0.555570
vertex -0.707107 1.000000 -0.707107
vertex -0.707107 -1.000000 -0.707107
endloop
endfacet
facet normal -0.634393 0.000000 -0.773010
outer loop
vertex -0.707107 -1.000000 -0.707107
vertex -0.707107 1.000000 -0.707107
vertex -0.555570 1.000000 -0.831470
endloop
endfacet
facet normal -0.634393 0.000000 -0.773010
outer loop
vertex -0.707107 -1.000000 -0.707107
vertex -0.555570 1.000000 -0.831470
vertex -0.555570 -1.000000 -0.831470
endloop
endfacet
facet normal -0.471397 0.000000 -0.881921
outer loop
vertex -0.555570 -1.000000 -0.831470
vertex -0.555570 1.000000 -0.831470
vertex -0.382683 1.000000 -0.923880
endloop
endfacet
facet normal -0.471396 0.000000 -0.881921
outer loop
vertex -0.555570 -1.000000 -0.831470
vertex -0.382683 1.000000 -0.923880
vertex -0.382683 -1.000000 -0.923880
endloop
endfacet
facet normal -0.290285 0.000000 -0.956940
outer loop
vertex -0.382683 -1.000000 -0.923880
vertex -0.382683 1.000000 -0.923880
vertex -0.195090 1.000000 -0.980785
endloop
endfacet
facet normal -0.290285 0.000000 -0.956940
outer loop
vertex -0.382683 -1.000000 -0.923880
vertex -0.195090 1.000000 -0.980785
vertex -0.195090 -1.000000 -0.980785
endloop
endfacet
facet normal -0.098017 0.000000 -0.995185
outer loop
vertex -0.195090 -1.000000 -0.980785
vertex -0.195090 1.000000 -0.980785
vertex 0.000000 1.000000 -1.000000
endloop
endfacet
facet normal -0.098017 0.000000 -0.995185
outer loop
vertex -0.195090 -1.000000 -0.980785
vertex 0.000000 1.000000 -1.000000
vertex 0.000000 -1.000000 -1.000000
endloop
endfacet
facet normal 0.098017 0.000000 -0.995185
outer loop
vertex 0.000000 -1.000000 -1.000000
vertex 0.000000 1.000000 -1.000000
vertex 0.195090 1.000000 -0.980785
endloop
endfacet
facet normal 0.098017 0.000000 -0.995185
outer loop
vertex 0.000000 -1.000000 -1.000000
vertex 0.195090 1.000000 -0.980785
vertex 0.195090 -1.000000 -0.980785
endloop
endfacet
facet normal 0.290285 0.000000 -0.956940
outer loop
vertex 0.195090 -1.000000 -0.980785
vertex 0.195090 1.000000 -0.980785
vertex 0.382683 1.000000 -0.923880
endloop
endfacet
facet normal 0.290285 0.000000 -0.956940
outer loop
vertex 0.195090 -1.000000 -0.980785
vertex 0.382683 1.000000 -0.923880
vertex 0.382683 -1.000000 -0.923880
endloop
endfacet
facet normal 0.471396 0.000000 -0.881921
outer loop
vertex 0.382683 -1.000000 -0.923880
vertex 0.382683 1.000000 -0.923880
vertex 0.555570 1.000000 -0.831470
endloop
endfacet
facet normal 0.471397 0.000000 -0.881921
outer loop
vertex 0.382683 -1.000000 -0.923880
vertex 0.555570 1.000000 -0.831470
vertex 0.555570 -1.000000 -0.831470
endloop
endfacet
facet normal 0.634393 0.000000 -0.773010
outer loop
vertex 0.555570 -1.000000 -0.831470
vertex 0.555570 1.000000 -0.831470
vertex 0.707107 1.000000 -0.707107
endloop
endfacet
facet normal 0.634393 0.000000 -0.773010
outer loop
vertex 0.555570 -1.000000 -0.831470
vertex 0.707107 1.000000 -0.707107
vertex 0.707107 -1.000000 -0.707107
endloop
endfacet
facet normal 0.773011 0.000000 -0.634393
outer loop
vertex 0.707107 -1.000000 -0.707107
vertex 0.707107 1.000000 -0.707107
vertex 0.831470 1.000000 -0.555570
endloop
endfacet
facet normal 0.773010 0.000000 -0.634394
outer loop
vertex 0.707107 -1.000000 -0.707107
vertex 0.831470 1.000000 -0.555570
vertex 0.831470 -1.000000 -0.555570
endloop
endfacet
facet normal 0.881921 0.000000 -0.471397
outer loop
vertex 0.831470 -1.000000 -0.555570
vertex 0.831470 1.000000 -0.555570
vertex 0.923880 1.000000 -0.382683
endloop
endfacet
facet normal 0.881921 0.000000 -0.471397
outer loop
vertex 0.831470 -1.000000 -0.555570
vertex 0.923880 1.000000 -0.382683
vertex 0.923880 -1.000000 -0.382683
endloop
endfacet
facet normal 0.956940 0.000000 -0.290285
outer loop
vertex 0.923880 -1.000000 -0.382683
vertex 0.923880 1.000000 -0.382683
vertex 0.980785 1.000000 -0.195090
endloop
endfacet
facet normal 0.956940 0.000000 -0.290285
outer loop
vertex 0.923880 -1.000000 -0.382683
vertex 0.980785 1.000000 -0.195090
vertex 0.980785 -1.000000 -0.195090
endloop
endfacet
facet normal 0.995185 0.000000 -0.098017
outer loop
vertex 0.980785 -1.000000 -0.195090
vertex 0.980785 1.000000 -0.195090
vertex 1.000000 1.000000 0.000000
endloop
endfacet
facet normal 0.995185 0.000000 -0.098017
outer loop
vertex 0.980785 -1.000000 -0.195090
vertex 1.000000 1.000000 0.000000
vertex 1.000000 -1.000000 0.000000
endloop
endfacet
facet normal 0.995185 0.000000 0.098017
outer loop
vertex 1.000000 -1.000000 0.000000
vertex 1.000000 1.000000 0.000000
vertex 0.980785 1.000000 0.195090
endloop
endfacet
facet normal 0.995185 0.000000 0.098017
outer loop
vertex 1.000000 -1.000000 0.000000
vertex 0.980785 1.000000 0.195090
vertex 0.980785 -1.000000 0.195090
endloop
endfacet
facet normal 0.956940 0.000000 0.290285
outer loop
vertex 0.980785 -1.000000 0.195090
vertex 0.980785 1.000000 0.195090
vertex 0.923880 1.000000 0.382683
endloop
endfacet
facet normal 0.956940 0.000000 0.290285
outer loop
vertex 0.980785 -1.000000 0.195090
vertex 0.923880 1.000000 0.382683
vertex 0.923880 -1.000000 0.382683
endloop
endfacet
facet normal 0.881921 0.000000 0.471397
outer loop
vertex 0.923880 -1.000000 0.382683
vertex 0.923880 1.000000 0.382683
vertex 0.831470 1.000000 0.555570
endloop
endfacet
facet normal 0.881921 0.000000 0.471397
outer loop
vertex 0.923880 -1.000000 0.382683
vertex 0.831470 1.000000 0.555570
vertex 0.831470 -1.000000 0.555570
endloop
endfacet
facet normal 0.773010 0.000000 0.634394
outer loop
vertex 0.831470 -1.000000 0.555570
vertex 0.831470 1.000000 0.555570
vertex 0.707107 1.000000 0.707107
endloop
endfacet
facet normal 0.773011 0.000000 0.634393
outer loop
vertex 0.831470 -1.000000 0.555570
vertex 0.707107 1.000000 0.707107
vertex 0.707107 -1.000000 0.707107
endloop
endfacet
facet normal 0.634393 0.000000 0.773010
outer loop
vertex 0.707107 -1.000000 0.707107
vertex 0.707107 1.000000 0.707107
vertex 0.555570 1.000000 0.831470
endloop
endfacet
facet normal 0.634393 0.000000 0.773010
outer loop
vertex 0.707107 -1.000000 0.707107
vertex 0.555570 1.000000 0.831470
vertex 0.555570 -1.000000 0.831470
endloop
endfacet
facet normal 0.471397 0.000000 0.881921
outer loop
vertex 0.555570 -1.000000 0.831470
vertex 0.555570 1.000000 0.831470
vertex 0.382683 1.000000 0.923880
endloop
endfacet
facet normal 0.471396 0.000000 0.881921
outer loop
vertex 0.555570 -1.000000 0.831470
vertex 0.382683 1.000000 0.923880
vertex 0.382683 -1.000000 0.923880
endloop
endfacet
facet normal 0.000000 1.000000 0.000000
outer loop
vertex -0.382683 1.000000 0.923880
vertex -0.195090 1.000000 0.980785
vertex 0.000000 1.000000 1.000000
endloop
endfacet
facet normal 0.000000 1.000000 0.000000
outer loop
vertex 0.000000 1.000000 1.000000
vertex 0.195090 1.000000 0.980785
vertex 0.382683 1.000000 0.923880
endloop
endfacet
facet normal 0.000000 1.000000 0.000000
outer loop
vertex 0.382683 1.000000 0.923880
vertex 0.555570 1.000000 0.831470
vertex 0.707107 1.000000 0.707107
endloop
endfacet
facet normal 0.000000 1.000000 0.000000
outer loop
vertex 0.707107 1.000000 0.707107
vertex 0.831470 1.000000 0.555570
vertex 0.923880 1.000000 0.382683
endloop
endfacet
facet normal 0.000000 1.000000 0.000000
outer loop
vertex 0.923880 1.000000 0.382683
vertex 0.980785 1.000000 0.195090
vertex 1.000000 1.000000 0.000000
endloop
endfacet
facet normal 0.000000 1.000000 0.000000
outer loop
vertex 1.000000 1.000000 0.000000
vertex 0.980785 1.000000 -0.195090
vertex 0.923880 1.000000 -0.382683
endloop
endfacet
facet normal 0.000000 1.000000 0.000000
outer loop
vertex 0.923880 1.000000 -0.382683
vertex 0.831470 1.000000 -0.555570
vertex 0.707107 1.000000 -0.707107
endloop
endfacet
facet normal 0.000000 1.000000 0.000000
outer loop
vertex 0.707107 1.000000 -0.707107
vertex 0.555570 1.000000 -0.831470
vertex 0.382683 1.000000 -0.923880
endloop
endfacet
facet normal 0.000000 1.000000 0.000000
outer loop
vertex 0.382683 1.000000 -0.923880
vertex 0.195090 1.000000 -0.980785
vertex 0.000000 1.000000 -1.000000
endloop
endfacet
facet normal 0.000000 1.000000 0.000000
outer loop
vertex 0.000000 1.000000 -1.000000
vertex -0.195090 1.000000 -0.980785
vertex -0.382683 1.000000 -0.923880
endloop
endfacet
facet normal 0.000000 1.000000 0.000000
outer loop
vertex -0.382683 1.000000 -0.923880
vertex -0.555570 1.000000 -0.831470
vertex -0.707107 1.000000 -0.707107
endloop
endfacet
facet normal 0.000000 1.000000 0.000000
outer loop
vertex -0.707107 1.000000 -0.707107
vertex -0.831470 1.000000 -0.555570
vertex -0.923880 1.000000 -0.382683
endloop
endfacet
facet normal 0.000000 1.000000 0.000000
outer loop
vertex -0.923880 1.000000 -0.382683
vertex -0.980785 1.000000 -0.195090
vertex -1.000000 1.000000 0.000000
endloop
endfacet
facet normal 0.000000 1.000000 0.000000
outer loop
vertex -1.000000 1.000000 0.000000
vertex -0.980785 1.000000 0.195090
vertex -0.923880 1.000000 0.382683
endloop
endfacet
facet normal 0.000000 1.000000 0.000000
outer loop
vertex -0.923880 1.000000 0.382683
vertex -0.831470 1.000000 0.555570
vertex -0.707107 1.000000 0.707107
endloop
endfacet
facet normal 0.000000 1.000000 0.000000
outer loop
vertex -0.707107 1.000000 0.707107
vertex -0.555570 1.000000 0.831470
vertex -0.382683 1.000000 0.923880
endloop
endfacet
facet normal 0.000000 1.000000 0.000000
outer loop
vertex -0.382683 1.000000 0.923880
vertex 0.000000 1.000000 1.000000
vertex 0.382683 1.000000 0.923880
endloop
endfacet
facet normal 0.000000 1.000000 0.000000
outer loop
vertex 0.382683 1.000000 0.923880
vertex 0.707107 1.000000 0.707107
vertex 0.923880 1.000000 0.382683
endloop
endfacet
facet normal 0.000000 1.000000 0.000000
outer loop
vertex 0.923880 1.000000 0.382683
vertex 1.000000 1.000000 0.000000
vertex 0.923880 1.000000 -0.382683
endloop
endfacet
facet normal 0.000000 1.000000 0.000000
outer loop
vertex 0.923880 1.000000 -0.382683
vertex 0.707107 1.000000 -0.707107
vertex 0.382683 1.000000 -0.923880
endloop
endfacet
facet normal 0.000000 1.000000 0.000000
outer loop
vertex 0.382683 1.000000 -0.923880
vertex 0.000000 1.000000 -1.000000
vertex -0.382683 1.000000 -0.923880
endloop
endfacet
facet normal 0.000000 1.000000 0.000000
outer loop
vertex -0.382683 1.000000 -0.923880
vertex -0.707107 1.000000 -0.707107
vertex -0.923880 1.000000 -0.382683
endloop
endfacet
facet normal 0.000000 1.000000 0.000000
outer loop
vertex -0.923880 1.000000 -0.382683
vertex -1.000000 1.000000 0.000000
vertex -0.923880 1.000000 0.382683
endloop
endfacet
facet normal 0.000000 1.000000 0.000000
outer loop
vertex -0.923880 1.000000 0.382683
vertex -0.707107 1.000000 0.707107
vertex -0.382683 1.000000 0.923880
endloop
endfacet
facet normal 0.000000 1.000000 -0.000000
outer loop
vertex -0.382683 1.000000 0.923880
vertex 0.382683 1.000000 0.923880
vertex 0.923880 1.000000 0.382683
endloop
endfacet
facet normal 0.000000 1.000000 0.000000
outer loop
vertex 0.923880 1.000000 0.382683
vertex 0.923880 1.000000 -0.382683
vertex 0.382683 1.000000 -0.923880
endloop
endfacet
facet normal 0.000000 1.000000 0.000000
outer loop
vertex 0.382683 1.000000 -0.923880
vertex -0.382683 1.000000 -0.923880
vertex -0.923880 1.000000 -0.382683
endloop
endfacet
facet normal 0.000000 1.000000 0.000000
outer loop
vertex -0.923880 1.000000 -0.382683
vertex -0.923880 1.000000 0.382683
vertex -0.382683 1.000000 0.923880
endloop
endfacet
facet normal 0.000000 1.000000 0.000000
outer loop
vertex -0.382683 1.000000 0.923880
vertex 0.923880 1.000000 0.382683
vertex 0.382683 1.000000 -0.923880
endloop
endfacet
facet normal 0.000000 1.000000 -0.000000
outer loop
vertex 0.382683 1.000000 -0.923880
vertex -0.923880 1.000000 -0.382683
vertex -0.382683 1.000000 0.923880
endloop
endfacet
facet normal 0.290285 0.000000 0.956940
outer loop
vertex 0.382683 -1.000000 0.923880
vertex 0.382683 1.000000 0.923880
vertex 0.195090 1.000000 0.980785
endloop
endfacet
facet normal 0.290285 0.000000 0.956940
outer loop
vertex 0.382683 -1.000000 0.923880
vertex 0.195090 1.000000 0.980785
vertex 0.195090 -1.000000 0.980785
endloop
endfacet
facet normal 0.098017 0.000000 0.995185
outer loop
vertex 0.195090 -1.000000 0.980785
vertex 0.195090 1.000000 0.980785
vertex 0.000000 1.000000 1.000000
endloop
endfacet
facet normal 0.098017 0.000000 0.995185
outer loop
vertex 0.195090 -1.000000 0.980785
vertex 0.000000 1.000000 1.000000
vertex 0.000000 -1.000000 1.000000
endloop
endfacet
facet normal 0.000000 -1.000000 0.000000
outer loop
vertex 0.195090 -1.000000 0.980785
vertex 0.000000 -1.000000 1.000000
vertex -0.195090 -1.000000 0.980785
endloop
endfacet
facet normal 0.000000 -1.000000 0.000000
outer loop
vertex -0.195090 -1.000000 0.980785
vertex -0.382683 -1.000000 0.923880
vertex -0.555570 -1.000000 0.831470
endloop
endfacet
facet normal 0.000000 -1.000000 0.000000
outer loop
vertex -0.555570 -1.000000 0.831470
vertex -0.707107 -1.000000 0.707107
vertex -0.831470 -1.000000 0.555570
endloop
endfacet
facet normal 0.000000 -1.000000 0.000000
outer loop
vertex -0.831470 -1.000000 0.555570
vertex -0.923880 -1.000000 0.382683
vertex -0.980785 -1.000000 0.195090
endloop
endfacet
facet normal 0.000000 -1.000000 0.000000
outer loop
vertex -0.980785 -1.000000 0.195090
vertex -1.000000 -1.000000 0.000000
vertex -0.980785 -1.000000 -0.195090
endloop
endfacet
facet normal 0.000000 -1.000000 0.000000
outer loop
vertex -0.980785 -1.000000 -0.195090
vertex -0.923880 -1.000000 -0.382683
vertex -0.831470 -1.000000 -0.555570
endloop
endfacet
facet normal 0.000000 -1.000000 0.000000
outer loop
vertex -0.831470 -1.000000 -0.555570
vertex -0.707107 -1.000000 -0.707107
vertex -0.555570 -1.000000 -0.831470
endloop
endfacet
facet normal 0.000000 -1.000000 0.000000
outer loop
vertex -0.555570 -1.000000 -0.831470
vertex -0.382683 -1.000000 -0.923880
vertex -0.195090 -1.000000 -0.980785
endloop
endfacet
facet normal 0.000000 -1.000000 0.000000
outer loop
vertex -0.195090 -1.000000 -0.980785
vertex 0.000000 -1.000000 -1.000000
vertex 0.195090 -1.000000 -0.980785
endloop
endfacet
facet normal 0.000000 -1.000000 0.000000
outer loop
vertex 0.195090 -1.000000 -0.980785
vertex 0.382683 -1.000000 -0.923880
vertex 0.555570 -1.000000 -0.831470
endloop
endfacet
facet normal 0.000000 -1.000000 0.000000
outer loop
vertex 0.555570 -1.000000 -0.831470
vertex 0.707107 -1.000000 -0.707107
vertex 0.831470 -1.000000 -0.555570
endloop
endfacet
facet normal 0.000000 -1.000000 0.000000
outer loop
vertex 0.831470 -1.000000 -0.555570
vertex 0.923880 -1.000000 -0.382683
vertex 0.980785 -1.000000 -0.195090
endloop
endfacet
facet normal 0.000000 -1.000000 0.000000
outer loop
vertex 0.980785 -1.000000 -0.195090
vertex 1.000000 -1.000000 0.000000
vertex 0.980785 -1.000000 0.195090
endloop
endfacet
facet normal 0.000000 -1.000000 0.000000
outer loop
vertex 0.980785 -1.000000 0.195090
vertex 0.923880 -1.000000 0.382683
vertex 0.831470 -1.000000 0.555570
endloop
endfacet
facet normal 0.000000 -1.000000 0.000000
outer loop
vertex 0.831470 -1.000000 0.555570
vertex 0.707107 -1.000000 0.707107
vertex 0.555570 -1.000000 0.831470
endloop
endfacet
facet normal 0.000000 -1.000000 0.000000
outer loop
vertex 0.555570 -1.000000 0.831470
vertex 0.382683 -1.000000 0.923880
vertex 0.195090 -1.000000 0.980785
endloop
endfacet
facet normal 0.000000 -1.000000 -0.000001
outer loop
vertex 0.195090 -1.000000 0.980785
vertex -0.195090 -1.000000 0.980785
vertex -0.555570 -1.000000 0.831470
endloop
endfacet
facet normal 0.000000 -1.000000 0.000000
outer loop
vertex -0.555570 -1.000000 0.831470
vertex -0.831470 -1.000000 0.555570
vertex -0.980785 -1.000000 0.195090
endloop
endfacet
facet normal 0.000000 -1.000000 0.000000
outer loop
vertex -0.980785 -1.000000 0.195090
vertex -0.980785 -1.000000 -0.195090
vertex -0.831470 -1.000000 -0.555570
endloop
endfacet
facet normal 0.000000 -1.000000 0.000001
outer loop
vertex -0.831470 -1.000000 -0.555570
vertex -0.555570 -1.000000 -0.831470
vertex -0.195090 -1.000000 -0.980785
endloop
endfacet
facet normal 0.000000 -1.000000 0.000001
outer loop
vertex -0.195090 -1.000000 -0.980785
vertex 0.195090 -1.000000 -0.980785
vertex 0.555570 -1.000000 -0.831470
endloop
endfacet
facet normal 0.000000 -1.000000 0.000000
outer loop
vertex 0.555570 -1.000000 -0.831470
vertex 0.831470 -1.000000 -0.555570
vertex 0.980785 -1.000000 -0.195090
endloop
endfacet
facet normal 0.000000 -1.000000 0.000000
outer loop
vertex 0.980785 -1.000000 -0.195090
vertex 0.980785 -1.000000 0.195090
vertex 0.831470 -1.000000 0.555570
endloop
endfacet
facet normal 0.000000 -1.000000 -0.000001
outer loop
vertex 0.831470 -1.000000 0.555570
vertex 0.555570 -1.000000 0.831470
vertex 0.195090 -1.000000 0.980785
endloop
endfacet
facet normal 0.000000 -1.000000 0.000000
outer loop
vertex 0.195090 -1.000000 0.980785
vertex -0.555570 -1.000000 0.831470
vertex -0.980785 -1.000000 0.195090
endloop
endfacet
facet normal 0.000000 -1.000000 -0.000000
outer loop
vertex -0.980785 -1.000000 0.195090
vertex -0.831470 -1.000000 -0.555570
vertex -0.195090 -1.000000 -0.980785
endloop
endfacet
facet normal 0.000000 -1.000000 0.000000
outer loop
vertex -0.195090 -1.000000 -0.980785
vertex 0.555570 -1.000000 -0.831470
vertex 0.980785 -1.000000 -0.195090
endloop
endfacet
facet normal 0.000000 -1.000000 0.000000
outer loop
vertex 0.980785 -1.000000 -0.195090
vertex 0.831470 -1.000000 0.555570
vertex 0.195090 -1.000000 0.980785
endloop
endfacet
facet normal 0.000000 -1.000000 0.000000
outer loop
vertex 0.195090 -1.000000 0.980785
vertex -0.980785 -1.000000 0.195090
vertex -0.195090 -1.000000 -0.980785
endloop
endfacet
facet normal 0.000000 -1.000000 -0.000000
outer loop
vertex -0.195090 -1.000000 -0.980785
vertex 0.980785 -1.000000 -0.195090
vertex 0.195090 -1.000000 0.980785
endloop
endfacet
endsolid Exported from Blender-3.3.1
